<?xml version="1.0" encoding="utf-8"?>
<!-- Generator: Adobe Illustrator 16.0.0, SVG Export Plug-In . SVG Version: 6.00 Build 0)  -->
<!DOCTYPE svg PUBLIC "-//W3C//DTD SVG 1.1//EN" "http://www.w3.org/Graphics/SVG/1.1/DTD/svg11.dtd">
<svg version="1.1" id="key-1_1_" xmlns="http://www.w3.org/2000/svg" xmlns:xlink="http://www.w3.org/1999/xlink" x="0px" y="0px"
	 width="19px" height="19px" viewBox="0 0 19 19" enable-background="new 0 0 19 19" xml:space="preserve">
<g id="key-1">
	<g>
		<path fill-rule="evenodd" clip-rule="evenodd" fill="#FFFFFF" d="M5.406,10.035L0.6,14.899v3.5h4.2V17h1.4v-1.4h1.4l1.715-1.863
			C7.572,13.071,6.161,11.732,5.406,10.035z M11.8,1.6C8.707,1.6,6.2,4.106,6.2,7.2c0,3.093,2.507,5.6,5.6,5.6S17.4,10.293,17.4,7.2
			C17.4,4.106,14.893,1.6,11.8,1.6z M13.278,7.737c-1.113,0-2.016-0.902-2.016-2.016S13.127,3.7,13.9,3.7
			c0.772,0,1.395,0.908,1.395,2.021S14.392,7.737,13.278,7.737z"/>
	</g>
</g>
</svg>
