<?xml version="1.0" encoding="utf-8"?>
<!-- Generator: Adobe Illustrator 16.0.0, SVG Export Plug-In . SVG Version: 6.00 Build 0)  -->
<!DOCTYPE svg PUBLIC "-//W3C//DTD SVG 1.1//EN" "http://www.w3.org/Graphics/SVG/1.1/DTD/svg11.dtd">
<svg version="1.1" id="globe-8_1_" xmlns="http://www.w3.org/2000/svg" xmlns:xlink="http://www.w3.org/1999/xlink" x="0px" y="0px"
	 width="22px" height="22px" viewBox="0 0 22 22" enable-background="new 0 0 22 22" xml:space="preserve">
<g id="globe-8">
	<g>
		<path fill-rule="evenodd" clip-rule="evenodd" fill="#FFFFFF" d="M11,0.56C5.238,0.56,0.56,5.238,0.56,11S5.238,21.439,11,21.439
			c5.762,0,10.439-4.678,10.439-10.439S16.762,0.56,11,0.56z M18.975,7.52h-4.049c-0.359-1.694-0.985-2.39-1.867-3.966
			C15.702,4.206,17.903,5.07,18.975,7.52z M13.502,12.74H8.497c-0.115-1.156-0.098-2.327,0.046-3.48h4.913
			C13.599,10.414,13.617,11.584,13.502,12.74z M13.143,7.52H8.856c0.481-2.021,1.195-2.485,2.143-4.025
			C11.979,5.085,12.678,5.565,13.143,7.52z M8.95,3.535C8.098,5.053,7.451,5.743,7.073,7.52H3.024
			C4.107,5.047,6.273,4.173,8.95,3.535z M2.474,9.26h4.317c-0.129,1.155-0.145,2.324-0.041,3.48H2.474
			C2.242,11.596,2.242,10.402,2.474,9.26z M3.024,14.479h3.974c0.352,1.791,0.992,2.466,1.903,3.974
			C6.247,17.806,4.1,16.938,3.024,14.479z M8.774,14.479h4.45c-0.449,2.031-1.186,2.483-2.225,3.998
			C10.028,17.059,9.25,16.62,8.774,14.479z M13.109,18.434c0.939-1.572,1.553-2.225,1.893-3.954h3.973
			C17.91,16.915,15.73,17.77,13.109,18.434z M15.25,12.74c0.103-1.156,0.087-2.325-0.042-3.48h4.317c0.238,1.177,0.227,2.362,0,3.48
			H15.25z"/>
	</g>
</g>
</svg>
